<?xml version="1.0" encoding="UTF-8" standalone="no"?>
<svg width="9px" height="17px" viewBox="0 0 9 17" version="1.1" xmlns="http://www.w3.org/2000/svg" xmlns:xlink="http://www.w3.org/1999/xlink" xmlns:sketch="http://www.bohemiancoding.com/sketch/ns">
    <!-- Generator: Sketch 3.4 (15575) - http://www.bohemiancoding.com/sketch -->
    <title>facebook</title>
    <desc>Created with Sketch.</desc>
    <defs></defs>
    <g id="Page-1" stroke="none" stroke-width="1" fill="none" fill-rule="evenodd" sketch:type="MSPage">
        <g id="majal-site" sketch:type="MSArtboardGroup" transform="translate(-727.000000, -771.000000)" fill="#000000">
            <g id="::-ALL-SITE" sketch:type="MSLayerGroup" transform="translate(242.000000, 82.000000)">
                <g id="::-contact-links" transform="translate(453.445312, 689.000000)" sketch:type="MSShapeGroup">
                    <path d="M40.4967965,0.423348733 L40.4967965,2.94843793 L38.9951337,2.94843793 C38.446753,2.94843793 38.0769204,3.06321356 37.8856248,3.29276827 C37.6943292,3.52232299 37.5986828,3.86664989 37.5986828,4.32575931 L37.5986828,6.13349362 L40.4011492,6.13349362 L40.0281247,8.96465423 L37.5986828,8.96465423 L37.5986828,16.2242857 L34.6718749,16.2242857 L34.6718749,8.96465423 L32.2328683,8.96465423 L32.2328683,6.13349362 L34.6718749,6.13349362 L34.6718749,4.04838209 C34.6718749,2.86234941 35.0034489,1.94255024 35.666607,1.28895696 C36.329765,0.635363687 37.2128998,0.308571952 38.3160377,0.308571952 C39.2533861,0.308571952 39.9802984,0.346830496 40.4967965,0.423348733 L40.4967965,0.423348733 Z" id="facebook"></path>
                </g>
            </g>
        </g>
    </g>
</svg>