<?xml version="1.0" encoding="UTF-8" standalone="no"?>
<svg width="15px" height="13px" viewBox="0 0 15 13" version="1.1" xmlns="http://www.w3.org/2000/svg" xmlns:xlink="http://www.w3.org/1999/xlink" xmlns:sketch="http://www.bohemiancoding.com/sketch/ns">
    <!-- Generator: Sketch 3.4 (15575) - http://www.bohemiancoding.com/sketch -->
    <title>twitter</title>
    <desc>Created with Sketch.</desc>
    <defs></defs>
    <g id="Page-1" stroke="none" stroke-width="1" fill="none" fill-rule="evenodd" sketch:type="MSPage">
        <g id="majal-site" sketch:type="MSArtboardGroup" transform="translate(-696.000000, -773.000000)" fill="#000000">
            <g id="::-ALL-SITE" sketch:type="MSLayerGroup" transform="translate(242.000000, 82.000000)">
                <g id="::-contact-links" transform="translate(453.445312, 689.000000)" sketch:type="MSShapeGroup">
                    <path d="M13.8314732,5.88337054 C13.8377977,5.97191265 13.8409598,6.10472382 13.8409598,6.28180804 C13.8409598,7.10398477 13.7207973,7.92456808 13.4804688,8.74358259 C13.2401402,9.5625971 12.8749094,10.3483965 12.3847656,11.1010045 C11.8946218,11.8536124 11.3112013,12.5192493 10.6344866,13.0979353 C9.95777191,13.6766212 9.14193186,14.1382981 8.18694196,14.4829799 C7.23195207,14.8276617 6.21057092,15 5.12276786,15 C3.4088456,15 1.8404089,14.5414852 0.417410714,13.624442 C0.638765988,13.6497397 0.885415307,13.6623884 1.15736607,13.6623884 C2.58036426,13.6623884 3.84839473,13.2260088 4.96149554,12.3532366 C4.29742972,12.3405877 3.70294161,12.1366277 3.17801339,11.7413504 C2.65308517,11.3460732 2.29259771,10.8417069 2.09654018,10.2282366 C2.30524658,10.2598588 2.498139,10.2756696 2.67522321,10.2756696 C2.94717398,10.2756696 3.21595849,10.2408858 3.48158482,10.171317 C2.77324795,10.0258549 2.18666527,9.67327289 1.7218192,9.11356027 C1.25697312,8.55384765 1.02455357,7.90402156 1.02455357,7.1640625 L1.02455357,7.12611607 C1.45461525,7.36644465 1.91629218,7.49609366 2.40959821,7.51506696 C1.99218541,7.23679176 1.66015748,6.87314213 1.41350446,6.42410714 C1.16685145,5.97507216 1.04352679,5.48809786 1.04352679,4.96316964 C1.04352679,4.40661924 1.1826623,3.89118541 1.4609375,3.41685268 C2.2261943,4.3591937 3.15745359,5.11337143 4.2547433,5.67940848 C5.35203302,6.24544554 6.52677945,6.56008153 7.77901786,6.62332589 C7.72842237,6.38299731 7.703125,6.14899667 7.703125,5.92131696 C7.703125,5.07384249 8.00195014,4.35128647 8.59960938,3.75362723 C9.19726861,3.15596799 9.91982463,2.85714286 10.7672991,2.85714286 C11.6527202,2.85714286 12.3989925,3.17968427 13.0061384,3.82477679 C13.695502,3.69196362 14.343747,3.4453143 14.9508929,3.08482143 C14.7168887,3.81213161 14.2678605,4.37499801 13.6037946,4.7734375 C14.1919672,4.71019314 14.780131,4.5520846 15.3683036,4.29910714 C14.9445663,4.91890191 14.4322947,5.44698443 13.8314732,5.88337054 Z" id="twitter"></path>
                </g>
            </g>
        </g>
    </g>
</svg>